PathFileType  4	(X/Y/Z) C:\Users\antoi\Documents\MyRepositories\mobilecap\ResultsAnalysis
DataRate	CameraRate	NumFrames	NumMarkers	Units	OrigDataRate	OrigDataStartFrame	OrigNumFrames
100.0	100.0	6	51	mm	100.0	68	271
Frame#	Time	r_knee			r_shank_antsup			r_ankle			r_calc			r_5meta			r_toe			L_knee			L_shank_antsup			L_ankle			L_calc			L_5meta			L_toe			r_sh2			r_sh3			r_sh4			L_sh2			L_sh3			r_thigh1			r_thigh2			r_thigh3			r_thigh4			r_thigh5			L_thigh1			L_thigh2			L_thigh3			L_thigh4			r.ASIS			r.PSIS			L.ASIS			L.PSIS			C7			R_Shoulder			L_Shoulder			R_Sternum			L_Sternum			R_humerus			R_elbow_med			R_elbow_lat			R_forearm			R_wrist_radius			R_wrist_ulna			L_humerus			L_elbow_med			L_elbow_lat			L_forearm			L_wrist_radius			L_wrist_ulna			R_HJC			L_HJC			R_HJC_reg			L_HJC_reg			
		X1	Y1	Z1	X2	Y2	Z2	X3	Y3	Z3	X4	Y4	Z4	X5	Y5	Z5	X6	Y6	Z6	X7	Y7	Z7	X8	Y8	Z8	X9	Y9	Z9	X10	Y10	Z10	X11	Y11	Z11	X12	Y12	Z12	X13	Y13	Z13	X14	Y14	Z14	X15	Y15	Z15	X16	Y16	Z16	X17	Y17	Z17	X18	Y18	Z18	X19	Y19	Z19	X20	Y20	Z20	X21	Y21	Z21	X22	Y22	Z22	X23	Y23	Z23	X24	Y24	Z24	X25	Y25	Z25	X26	Y26	Z26	X27	Y27	Z27	X28	Y28	Z28	X29	Y29	Z29	X30	Y30	Z30	X31	Y31	Z31	X32	Y32	Z32	X33	Y33	Z33	X34	Y34	Z34	X35	Y35	Z35	X36	Y36	Z36	X37	Y37	Z37	X38	Y38	Z38	X39	Y39	Z39	X40	Y40	Z40	X41	Y41	Z41	X42	Y42	Z42	X43	Y43	Z43	X44	Y44	Z44	X45	Y45	Z45	X46	Y46	Z46	X47	Y47	Z47	X48	Y48	Z48	X49	Y49	Z49	X50	Y50	Z50	X51	Y51	Z51	

68	0.67000000	-1022.71839	742.42211	-420.21901	-996.92645	667.86223	-420.05294	-1192.08980	395.31499	-426.59777	-1254.09701	367.91813	-467.47082	-1089.48948	349.28611	-405.17012	-1052.37056	364.83283	-460.62780	-1001.51296	731.91639	-710.82334	-992.27766	634.23889	-695.66924	-1195.77699	409.71462	-703.86272	-1261.51219	372.82192	-657.89629	-1105.14466	351.94198	-729.68614	-1054.62696	363.62371	-675.68660	-1059.91015	573.98414	-409.42115	-1054.60852	710.36568	-390.39366	-1125.47924	617.78013	-383.55612	-1049.44594	688.09470	-746.63307	-1116.55238	582.64229	-749.60038	-1051.66263	993.20087	-375.96111	-1016.79257	884.27232	-388.77750	-1116.28156	848.00149	-413.91103	-1159.16887	954.65282	-391.48402	-1066.98514	843.23698	-391.24923	-1049.29073	1006.14341	-758.94869	-998.44859	878.30141	-737.69470	-1154.31449	967.39047	-756.54645	-1106.39260	841.16193	-716.43659	-1031.57126	1157.85232	-461.19955	-1217.76562	1252.14938	-539.14742	-1030.25021	1150.96521	-676.26803	-1215.38366	1247.67533	-621.34404	-939.91245	1614.91762	-569.16577	-901.08915	1556.38512	-422.30649	-898.74906	1562.73982	-711.56818	-850.42885	1507.42039	-545.30790	-850.38140	1508.13283	-582.57740	-936.45847	1444.55776	-360.62004	-1121.14476	1316.93949	-355.19559	-1084.57024	1308.96731	-301.05364	-1055.25818	1220.34979	-286.09751	-1063.37099	1077.14302	-286.58478	-1095.62913	1080.88081	-266.30539	-941.45045	1473.64068	-787.98693	-1106.00249	1318.22531	-801.97086	-1067.10217	1325.09917	-857.50807	-1043.80630	1220.50984	-873.68938	-1044.48070	1092.52448	-870.24014	-1078.67769	1096.27626	-892.50296	-1138.30807	1102.83303	-464.65898	-1133.86123	1096.86768	-672.03097	-1121.34232	1119.54652	-490.99540	-1117.23803	1111.83401	-632.75077	
69	0.68000000	-1014.29385	739.14306	-420.55817	-989.46615	664.29739	-420.86134	-1190.97968	396.75459	-427.37072	-1253.33767	369.64678	-468.27207	-1089.23751	349.33726	-405.39950	-1051.65973	364.12851	-460.89036	-995.57400	729.15537	-711.89317	-987.13430	631.17136	-696.06460	-1195.15591	409.97714	-702.92546	-1261.14822	374.23607	-657.53216	-1104.94095	351.79959	-729.90988	-1054.61783	363.07315	-675.72496	-1054.34259	571.60934	-410.43918	-1046.35456	707.99145	-391.05394	-1118.44172	615.67766	-384.87489	-1043.38908	685.90208	-746.82163	-1112.40047	581.58772	-749.67031	-1048.09365	988.26279	-376.09123	-1010.65110	880.98803	-389.01720	-1109.62841	842.36434	-414.92669	-1154.65528	948.25083	-392.56868	-1060.42810	838.51398	-391.78448	-1046.46450	1002.63035	-759.59437	-994.80085	874.90298	-738.42065	-1152.05262	962.50711	-758.95664	-1102.15684	836.86948	-716.86449	-1029.56381	1151.76904	-461.54347	-1215.80028	1247.00312	-539.01486	-1029.46244	1145.00509	-676.99273	-1213.69884	1242.69228	-621.12047	-936.15055	1608.25248	-569.81263	-897.54575	1549.31174	-423.02761	-895.09830	1555.45085	-712.24991	-847.07080	1500.46756	-545.96815	-847.10720	1501.22515	-583.18173	-931.03881	1436.91622	-362.05900	-1112.09890	1304.08398	-355.19623	-1074.49167	1296.79872	-301.67056	-1042.46763	1208.90032	-288.05532	-1046.21139	1065.77296	-289.24669	-1078.32247	1068.14926	-268.90849	-935.64797	1465.23008	-788.28793	-1095.95891	1305.26755	-803.65386	-1056.08056	1312.66401	-858.55733	-1029.20475	1208.34997	-873.26633	-1026.43141	1080.82896	-868.48250	-1060.55039	1083.08804	-890.95743	-1136.72570	1097.32325	-464.81003	-1133.21302	1091.41514	-672.20157	-1119.89168	1113.62210	-491.18677	-1116.25785	1106.16663	-633.21687	
70	0.69000000	-1005.79078	735.84252	-421.02121	-981.96908	660.73011	-421.71123	-1189.78013	398.40854	-427.60409	-1252.44617	371.79400	-468.91649	-1088.94207	349.38625	-405.50648	-1050.96682	363.48686	-461.06432	-989.56396	726.25362	-712.86177	-982.40766	628.47583	-696.69470	-1194.58489	409.95233	-700.89338	-1260.87375	375.99696	-656.72012	-1104.81100	351.64864	-729.98484	-1054.42537	362.47548	-675.78844	-1048.61485	569.44537	-411.33376	-1037.82100	705.78278	-391.66786	-1112.13423	614.92846	-385.62144	-1037.78188	683.06393	-745.59195	-1108.18211	580.59779	-749.98674	-1044.30323	983.49604	-376.19636	-1003.39920	878.02233	-389.54045	-1102.79969	836.70083	-415.86210	-1149.84575	941.46376	-394.07944	-1053.70791	833.75059	-392.33355	-1043.48511	998.94640	-760.17358	-991.01477	871.57417	-739.21565	-1149.40093	958.01580	-761.24098	-1097.75750	832.30562	-717.04841	-1027.64267	1145.32654	-462.21923	-1213.89623	1241.57034	-538.82115	-1029.25750	1139.13080	-677.57273	-1211.95706	1237.44755	-620.87723	-932.45988	1601.42924	-570.34929	-893.94105	1542.11291	-423.56215	-891.62302	1547.94133	-712.81919	-843.84195	1493.47409	-546.40134	-844.01461	1494.28532	-583.73375	-925.06086	1428.94713	-363.40311	-1102.59579	1291.14192	-354.81108	-1063.88462	1284.55007	-302.02375	-1028.81202	1197.59215	-289.99567	-1027.95321	1054.39827	-292.25779	-1059.76916	1055.65254	-271.47115	-929.78519	1456.70209	-788.57902	-1085.37920	1291.98968	-805.40881	-1044.54860	1300.21760	-859.75200	-1013.74439	1196.21623	-872.81420	-1007.24475	1069.45309	-866.73706	-1041.10736	1070.05103	-889.51282	-1135.23991	1091.47595	-465.09918	-1132.82535	1085.88141	-672.51619	-1118.73375	1107.60906	-491.77125	-1115.37660	1100.47374	-633.74899	
71	0.70000000	-997.33022	732.51323	-421.59574	-974.35443	657.24519	-422.65459	-1188.37517	400.04451	-427.90325	-1251.40603	374.10921	-469.40698	-1088.63319	349.38211	-405.59537	-1050.25528	362.82446	-461.07185	-983.44848	723.10463	-713.68466	-977.97712	625.99802	-697.41539	-1193.77422	410.32489	-699.66176	-1260.35997	377.80652	-656.29062	-1104.62646	351.50066	-730.03871	-1054.02032	361.92075	-676.07379	-1042.76392	567.42248	-412.09001	-1028.92808	703.70977	-392.04529	-1106.14866	615.22053	-386.03208	-1032.33613	679.97034	-744.08171	-1103.87093	579.56396	-750.52795	-1040.44004	979.19946	-376.58018	-995.65701	875.13570	-390.24472	-1095.91836	831.15615	-416.57209	-1144.86000	934.51374	-395.57168	-1046.84234	829.05464	-392.80665	-1041.14493	994.71945	-760.91111	-987.09939	868.26758	-740.21101	-1146.54007	953.19922	-762.02052	-1093.14780	827.65671	-717.38848	-1025.71997	1138.67358	-463.01096	-1211.97832	1235.88470	-538.40416	-1028.35227	1133.61231	-678.07853	-1210.29113	1232.11581	-620.64113	-928.85081	1594.52667	-570.78530	-890.26050	1534.74295	-423.99176	-888.32302	1540.35461	-713.24628	-840.60073	1486.41717	-546.81043	-840.85292	1487.17292	-584.23825	-918.50871	1420.63742	-364.77713	-1092.43607	1277.98440	-354.59917	-1052.80266	1272.38472	-302.16329	-1014.42364	1186.51592	-291.66651	-1008.48850	1043.36209	-295.46752	-1039.91657	1043.48411	-273.88601	-923.88938	1448.09371	-788.65803	-1074.18584	1278.45406	-807.01440	-1032.59675	1287.72955	-860.88222	-997.83927	1184.50380	-872.29977	-986.86199	1058.50958	-865.06913	-1020.44252	1057.28108	-887.89621	-1133.56803	1085.21763	-465.66967	-1131.90282	1080.57641	-673.11847	-1117.12568	1101.51740	-492.41099	-1114.21603	1095.01781	-634.22453	
72	0.71000000	-988.90489	729.12455	-422.09979	-966.64036	653.81633	-423.58035	-1186.77201	401.46806	-428.81775	-1250.37616	376.41360	-469.82102	-1088.32888	349.35523	-405.71344	-1049.50168	362.16517	-461.08693	-977.16959	719.86353	-714.53682	-973.07053	623.21281	-698.15590	-1192.60879	411.31789	-699.90113	-1259.58526	379.63112	-656.42143	-1104.32639	351.33180	-730.08333	-1053.57154	361.48282	-676.49656	-1036.87956	565.27177	-412.93025	-1019.70117	701.49368	-392.36427	-1099.19345	614.49465	-386.77692	-1026.36117	677.29733	-743.86821	-1099.36346	578.55825	-751.22371	-1036.33579	974.89445	-377.28192	-988.90522	871.67325	-390.93538	-1089.06806	825.61321	-417.22957	-1139.91312	927.71087	-396.58595	-1040.00139	824.42750	-393.20136	-1039.25961	990.30951	-761.73025	-982.75927	865.03740	-741.13445	-1143.68921	947.76206	-762.08744	-1088.15296	823.33024	-719.11690	-1023.62160	1131.99037	-463.68612	-1209.97884	1229.99283	-537.90334	-1026.73282	1127.92531	-678.52106	-1208.66095	1226.58097	-620.33252	-925.38447	1587.59821	-571.19259	-886.56709	1527.27473	-424.47624	-885.23274	1532.84741	-713.58198	-837.33241	1479.25283	-547.39501	-837.59582	1479.89336	-584.68543	-911.95729	1412.54195	-365.99753	-1081.64369	1264.60573	-354.42136	-1041.25677	1260.27920	-302.25070	-999.35388	1175.74840	-292.94917	-987.54834	1033.02768	-298.53356	-1018.64437	1031.54094	-276.21162	-918.08286	1439.48479	-788.48888	-1062.39528	1264.75233	-808.43253	-1020.30879	1275.06221	-861.37740	-981.38292	1173.31044	-871.59455	-965.17235	1048.16888	-863.41187	-998.50092	1045.05946	-886.15497	-1131.61777	1078.78588	-466.17264	-1130.51247	1075.10762	-673.64542	-1115.01564	1095.28782	-492.81206	-1112.75202	1089.42417	-634.50390	
73	0.72000000	-980.58106	725.61795	-422.54772	-959.01015	650.21975	-424.55133	-1185.19905	403.12698	-429.48810	-1249.41823	378.77445	-470.25452	-1088.00517	349.33381	-405.85728	-1048.73708	361.58992	-461.14082	-970.74075	716.66493	-715.27151	-967.50825	620.06783	-698.88166	-1191.22650	412.53398	-700.52132	-1258.70953	381.69068	-656.65511	-1103.98904	351.16793	-730.11431	-1053.08285	361.13903	-676.80768	-1031.02905	562.94669	-413.81299	-1010.28147	699.00427	-392.64103	-1091.82279	612.98930	-387.57696	-1019.77735	675.08495	-744.78001	-1094.55941	577.69597	-752.04546	-1032.11192	970.03423	-378.00675	-983.26989	867.62827	-391.64664	-1082.22977	819.87533	-418.17978	-1135.05008	921.13279	-397.25763	-1033.32100	819.71891	-393.71567	-1037.30722	986.00912	-762.64042	-978.02400	862.05363	-741.92685	-1140.77380	942.12810	-762.38418	-1082.82675	819.16781	-721.74683	-1021.35198	1125.28124	-464.52511	-1207.91556	1223.97450	-537.48290	-1024.84684	1122.09774	-679.05894	-1207.00422	1220.81604	-620.14771	-922.07525	1580.60632	-571.58457	-882.94234	1519.80854	-425.13543	-882.31766	1525.40799	-713.89609	-834.11890	1472.01439	-548.11245	-834.46411	1472.55070	-585.13598	-905.60632	1404.84419	-366.95275	-1070.18553	1251.11400	-354.10404	-1029.07981	1248.22736	-302.20171	-983.52507	1165.37706	-293.94525	-965.18509	1023.53555	-301.26512	-995.98846	1020.08597	-278.47486	-912.28288	1431.09381	-788.35735	-1049.99828	1251.02800	-809.78657	-1007.59976	1262.37070	-861.20667	-964.06850	1162.67016	-870.64865	-942.19869	1038.63921	-861.52684	-975.16411	1033.71933	-884.46477	-1129.45536	1072.25897	-466.75476	-1128.91646	1069.46102	-674.24248	-1112.66037	1089.08478	-493.28215	-1111.09893	1083.67751	-634.79822	
